<svg xmlns="http://www.w3.org/2000/svg" viewBox="0 0 160 160" role="img" aria-labelledby="title desc">
  <title id="title">Pet medicines</title>
  <desc id="desc">A medicine bottle, syringe, and tablets to represent pet medicines.</desc>
  <rect width="160" height="160" rx="28" fill="#f0fdfa"/>
  <ellipse cx="82" cy="132" rx="54" ry="10" fill="#ccfbf1"/>
  <rect x="28" y="42" width="44" height="76" rx="10" fill="#ffffff" stroke="#99f6e4" stroke-width="4"/>
  <rect x="34" y="30" width="32" height="18" rx="6" fill="#0f766e"/>
  <rect x="39" y="61" width="22" height="8" rx="4" fill="#0ea5e9"/>
  <rect x="46" y="54" width="8" height="22" rx="4" fill="#0ea5e9"/>
  <path d="M90 52l16 16-10 10-16-16z" fill="#bfdbfe"/>
  <path d="M80 60l12-12 34 34-12 12z" fill="#e2e8f0"/>
  <path d="M115 83l11 11-6 6-11-11z" fill="#0f766e"/>
  <path d="M77 63l9-9 6 6-9 9z" fill="#fca5a5"/>
  <rect x="92" y="98" width="30" height="18" rx="9" fill="#f59e0b"/>
  <path d="M107 98a9 9 0 0 1 0 18V98z" fill="#fde68a"/>
  <circle cx="88" cy="118" r="9" fill="#93c5fd"/>
  <circle cx="124" cy="64" r="7" fill="#34d399"/>
</svg>
