<svg xmlns="http://www.w3.org/2000/svg" viewBox="0 0 160 160" role="img" aria-labelledby="title desc">
  <title id="title">Cat playing with toys</title>
  <desc id="desc">A cat with a toy ball and feather teaser to represent pet toys.</desc>
  <rect width="160" height="160" rx="28" fill="#eff6ff"/>
  <ellipse cx="82" cy="132" rx="54" ry="10" fill="#dbeafe"/>
  <circle cx="66" cy="56" r="17" fill="#9ca3af"/>
  <path d="M54 43l-10-12-2 18z" fill="#6b7280"/>
  <path d="M78 43l12-12 2 18z" fill="#6b7280"/>
  <circle cx="61" cy="56" r="2.5" fill="#111827"/>
  <circle cx="71" cy="56" r="2.5" fill="#111827"/>
  <path d="M62 64c2 2 6 2 8 0" stroke="#111827" stroke-width="2.5" stroke-linecap="round"/>
  <path d="M52 66l-12 2M52 70l-12 4M80 66l12 2M80 70l12 4" stroke="#6b7280" stroke-width="2" stroke-linecap="round"/>
  <path d="M50 72c5-7 27-7 32 0v30H48V72z" fill="#9ca3af"/>
  <rect x="50" y="98" width="10" height="24" rx="5" fill="#6b7280"/>
  <rect x="70" y="98" width="10" height="24" rx="5" fill="#6b7280"/>
  <path d="M82 88c14 4 24 16 24 28 0 4-1 7-3 10" stroke="#6b7280" stroke-width="6" stroke-linecap="round" fill="none"/>
  <circle cx="114" cy="102" r="16" fill="#0ea5e9"/>
  <path d="M114 86v32M98 102h32" stroke="#93c5fd" stroke-width="4" stroke-linecap="round"/>
  <path d="M126 34c0 26-20 20-20 44" stroke="#f59e0b" stroke-width="3" stroke-linecap="round" fill="none"/>
  <path d="M124 34c10 2 14 8 14 18-10 0-17-3-21-12z" fill="#10b981"/>
  <path d="M132 28c12 0 18 4 20 14-10 3-18 1-24-7z" fill="#34d399"/>
</svg>
